<svg xmlns="http://www.w3.org/2000/svg" xmlns:xlink="http://www.w3.org/1999/xlink" width="300" zoomAndPan="magnify" viewBox="0 0 224.87999 74.999997" height="100" preserveAspectRatio="xMidYMid meet" version="1.0"><defs><clipPath id="b76b3147a4"><path d="M 0 0.0195312 L 224.761719 0.0195312 L 224.761719 74.980469 L 0 74.980469 Z M 0 0.0195312 " clip-rule="nonzero"/></clipPath><clipPath id="e76d3e3484"><path d="M 133.300781 21.53125 L 170.738281 21.53125 L 170.738281 55.136719 L 133.300781 55.136719 Z M 133.300781 21.53125 " clip-rule="nonzero"/></clipPath></defs><g clip-path="url(#b76b3147a4)"><path fill="#ffffff" d="M 0 0.0195312 L 224.878906 0.0195312 L 224.878906 74.980469 L 0 74.980469 Z M 0 0.0195312 " fill-opacity="1" fill-rule="nonzero"/><path fill="#ffffff" d="M 0 0.0195312 L 224.878906 0.0195312 L 224.878906 74.980469 L 0 74.980469 Z M 0 0.0195312 " fill-opacity="1" fill-rule="nonzero"/></g><g clip-path="url(#e76d3e3484)"><path fill="#df8d00" d="M 152.34375 24.078125 C 152.523438 24.019531 152.523438 23.835938 152.707031 23.835938 C 152.828125 23.835938 152.886719 23.777344 152.886719 23.65625 C 152.828125 23.597656 152.886719 23.476562 153.007812 23.414062 C 153.191406 23.355469 153.371094 23.414062 153.550781 23.476562 C 153.550781 23.476562 153.613281 23.476562 153.613281 23.476562 C 153.550781 23.355469 153.550781 23.234375 153.613281 23.234375 C 153.734375 23.234375 153.914062 23.355469 154.15625 23.292969 C 154.21875 23.234375 154.277344 23.171875 154.277344 23.113281 C 154.339844 23.050781 154.398438 23.050781 154.398438 22.992188 C 154.398438 22.929688 154.339844 22.808594 154.339844 22.808594 C 154.398438 22.566406 154.519531 22.328125 154.578125 22.265625 C 154.699219 22.023438 154.882812 21.84375 155.125 21.722656 C 155.726562 21.421875 156.574219 21.539062 157.058594 21.84375 C 157.238281 21.964844 157.359375 22.144531 157.421875 22.328125 C 157.421875 22.386719 157.542969 22.449219 157.542969 22.449219 C 157.601562 22.566406 157.601562 22.6875 157.601562 22.808594 C 157.601562 22.871094 157.664062 22.992188 157.664062 22.992188 C 157.601562 23.050781 157.601562 23.171875 157.601562 23.234375 C 157.542969 23.414062 157.480469 22.75 157.480469 22.6875 C 157.421875 22.449219 157.117188 22.449219 156.816406 22.328125 C 156.273438 22.207031 155.667969 22.507812 155.246094 22.75 C 155.183594 22.75 155.183594 22.808594 155.246094 22.808594 C 155.726562 22.75 156.695312 22.566406 157.117188 22.75 C 157.179688 22.808594 157.179688 22.808594 157.117188 22.808594 C 156.574219 22.871094 155.667969 22.929688 155.125 23.171875 C 155.847656 23.050781 156.875 23.050781 157.542969 23.414062 C 157.542969 23.414062 157.542969 23.414062 157.542969 23.476562 C 157.542969 23.65625 157.480469 23.835938 157.300781 23.898438 C 157.238281 23.898438 157.238281 23.898438 157.238281 23.957031 L 157.238281 24.140625 C 157.179688 24.140625 157.058594 24.140625 156.9375 24.140625 C 156.632812 24.078125 156.332031 23.957031 156.089844 23.898438 C 156.273438 23.957031 156.574219 24.140625 156.753906 24.140625 C 156.875 24.199219 156.996094 24.199219 157.117188 24.199219 C 157.238281 24.261719 157.300781 24.382812 157.359375 24.382812 C 157.300781 24.5625 157.300781 24.683594 157.179688 24.804688 C 157.058594 24.804688 156.996094 24.925781 156.9375 24.984375 C 156.695312 25.105469 156.632812 25.652344 156.273438 25.589844 C 156.089844 25.53125 155.96875 25.46875 155.910156 25.410156 C 155.910156 25.589844 155.910156 25.773438 155.789062 25.890625 C 155.726562 25.890625 155.726562 25.953125 155.726562 25.953125 L 156.089844 26.4375 C 156.089844 26.4375 156.089844 26.496094 156.03125 26.496094 C 155.726562 26.496094 155.546875 26.253906 155.488281 26.074219 C 155.246094 25.53125 155.003906 24.984375 154.699219 24.5625 C 154.699219 24.5625 154.699219 24.503906 154.699219 24.503906 C 154.820312 24.625 155.003906 24.746094 155.125 24.925781 C 155.304688 25.167969 155.367188 25.105469 155.183594 24.863281 C 154.761719 24.140625 153.734375 23.714844 152.949219 24.019531 C 152.886719 24.078125 152.949219 24.078125 152.949219 24.078125 C 153.914062 24.078125 154.578125 24.5625 154.941406 25.410156 C 155.125 25.832031 155.246094 26.316406 155.667969 26.617188 C 155.667969 26.617188 155.667969 26.679688 155.667969 26.679688 C 155.367188 26.738281 155.183594 26.679688 154.941406 26.496094 C 155.125 27.101562 155.304688 27.644531 155.910156 27.949219 C 155.847656 27.828125 155.789062 27.765625 155.726562 27.707031 C 155.546875 27.464844 155.367188 27.222656 155.304688 26.921875 C 155.304688 26.859375 155.304688 26.859375 155.304688 26.859375 C 155.546875 26.800781 155.789062 26.738281 156.089844 26.679688 C 156.332031 26.617188 156.695312 27.28125 156.574219 27.707031 C 156.574219 27.707031 156.515625 27.765625 156.515625 27.765625 L 156.453125 27.765625 C 156.515625 28.070312 156.695312 28.492188 156.574219 28.792969 C 156.574219 28.792969 156.515625 28.855469 156.515625 28.792969 C 156.453125 28.792969 156.453125 28.792969 156.453125 28.855469 L 156.394531 29.097656 C 156.394531 29.15625 156.394531 29.15625 156.394531 29.15625 C 155.96875 28.976562 155.488281 28.855469 155.125 28.855469 C 155.0625 28.855469 155.0625 28.792969 155.0625 28.792969 C 155.003906 28.492188 154.882812 28.1875 154.519531 28.308594 C 154.457031 28.308594 154.457031 28.25 154.457031 28.25 C 154.398438 27.949219 153.914062 27.523438 153.613281 27.222656 C 153.550781 27.222656 153.550781 27.222656 153.550781 27.222656 C 153.734375 27.464844 153.855469 27.707031 154.035156 27.949219 C 154.21875 28.25 153.914062 28.429688 153.734375 28.671875 C 153.734375 28.671875 153.734375 28.671875 153.734375 28.734375 C 153.792969 28.792969 153.855469 28.792969 153.914062 28.792969 C 154.398438 28.550781 155.003906 28.492188 155.0625 29.214844 C 155.0625 29.214844 154.941406 29.457031 155.003906 29.457031 C 155.003906 29.457031 155.125 29.097656 155.183594 29.035156 C 155.246094 29.035156 155.246094 29.035156 155.246094 29.035156 C 155.789062 29.097656 156.332031 29.277344 156.816406 29.398438 C 156.816406 29.398438 156.875 29.398438 156.875 29.398438 C 157.117188 29.335938 157.359375 29.277344 157.542969 29.277344 C 157.722656 29.277344 157.78125 29.398438 157.84375 29.578125 C 157.902344 29.761719 158.023438 29.699219 158.023438 29.761719 C 158.023438 29.761719 158.023438 29.820312 158.023438 29.820312 C 158.085938 30.003906 158.085938 30.125 158.144531 30.304688 C 158.144531 30.304688 158.144531 30.363281 158.144531 30.363281 C 157.664062 31.332031 159.777344 31.816406 160.320312 31.996094 C 161.347656 32.359375 162.316406 32.78125 163.222656 33.328125 C 162.253906 32.660156 161.226562 32.117188 160.140625 31.753906 C 160.140625 31.753906 160.140625 31.695312 160.140625 31.695312 C 161.289062 30.363281 162.617188 29.097656 164.492188 28.914062 C 165.578125 28.792969 166.726562 28.914062 167.816406 29.15625 C 167.816406 29.097656 167.816406 29.035156 167.695312 29.035156 C 166.910156 28.792969 165.941406 28.671875 165.15625 28.671875 C 163.042969 28.613281 161.105469 29.882812 159.898438 31.632812 C 159.898438 31.632812 159.898438 31.632812 159.839844 31.632812 C 159.414062 31.511719 158.929688 31.394531 158.507812 31.210938 C 158.507812 31.152344 158.507812 31.152344 158.507812 31.152344 L 158.75 31.089844 C 158.808594 31.03125 158.808594 31.03125 158.75 31.03125 C 158.628906 31.03125 158.449219 31.089844 158.265625 31.089844 C 158.265625 31.089844 158.265625 31.03125 158.265625 31.03125 L 158.871094 30.667969 L 158.507812 30.667969 C 158.449219 30.667969 158.449219 30.667969 158.449219 30.667969 C 158.929688 30.304688 159.292969 30.304688 159.898438 30.304688 C 160.199219 30.246094 160.441406 30.125 160.625 29.941406 C 160.625 29.941406 160.625 29.882812 160.5625 29.882812 L 159.777344 29.941406 C 159.71875 29.941406 159.71875 29.941406 159.777344 29.941406 L 160.441406 29.519531 L 160.140625 29.578125 C 160.078125 29.578125 160.078125 29.519531 160.078125 29.519531 L 160.683594 29.15625 C 160.683594 29.097656 160.683594 29.097656 160.683594 29.097656 C 160.320312 29.15625 160.019531 29.214844 159.65625 29.335938 C 159.65625 29.335938 159.65625 29.335938 159.65625 29.277344 C 160.261719 28.792969 160.804688 28.671875 161.589844 28.734375 C 161.710938 28.734375 161.832031 28.671875 161.894531 28.613281 C 161.953125 28.613281 161.953125 28.613281 161.953125 28.613281 C 162.074219 28.1875 161.46875 28.007812 161.167969 28.007812 C 161.167969 28.007812 161.167969 27.949219 161.167969 27.949219 C 161.53125 27.828125 161.832031 27.828125 162.195312 27.949219 C 162.375 28.007812 162.496094 28.070312 162.679688 28.070312 C 162.738281 28.070312 162.800781 28.007812 162.738281 27.949219 C 162.617188 27.707031 162.195312 27.585938 161.953125 27.585938 C 161.953125 27.585938 161.953125 27.585938 161.953125 27.523438 C 162.558594 27.464844 163.101562 27.585938 163.523438 28.007812 C 163.707031 28.128906 163.828125 28.25 164.007812 28.25 C 164.128906 28.25 164.191406 28.128906 164.128906 28.007812 C 164.070312 27.644531 163.765625 27.644531 163.402344 27.585938 C 163.765625 27.402344 164.3125 27.464844 164.613281 27.644531 C 164.792969 27.765625 165.097656 28.070312 165.339844 28.128906 C 165.398438 28.128906 165.457031 28.070312 165.457031 28.007812 C 165.398438 27.707031 165.15625 27.523438 164.914062 27.34375 C 164.855469 27.28125 164.914062 27.28125 164.914062 27.28125 C 165.035156 27.34375 165.097656 27.34375 165.21875 27.464844 C 165.761719 27.765625 166.367188 28.007812 166.488281 28.429688 C 166.488281 28.429688 166.546875 28.429688 166.546875 28.429688 C 166.789062 28.371094 167.03125 28.371094 167.332031 28.492188 L 167.332031 28.128906 C 167.332031 28.070312 167.332031 28.070312 167.332031 28.128906 C 167.636719 28.308594 167.996094 28.550781 167.996094 28.976562 L 169.449219 27.828125 C 169.449219 27.828125 169.449219 27.828125 169.449219 27.886719 L 169.085938 29.277344 L 170.171875 28.855469 C 170.171875 28.855469 170.171875 28.914062 170.171875 28.914062 C 169.929688 29.277344 169.570312 29.820312 169.265625 30.125 C 169.207031 30.125 169.207031 30.183594 169.207031 30.183594 L 169.265625 30.246094 C 169.265625 30.304688 169.265625 30.363281 169.207031 30.363281 C 168.722656 30.425781 168.300781 30.363281 167.875 30.304688 C 167.636719 30.183594 167.636719 29.640625 167.636719 29.457031 C 167.636719 29.398438 167.636719 29.398438 167.574219 29.398438 C 167.453125 29.640625 167.394531 29.882812 167.332031 30.183594 C 166.847656 30.304688 166.847656 30.910156 167.332031 31.03125 C 167.332031 31.089844 167.332031 31.089844 167.332031 31.089844 C 167.394531 32.117188 167.574219 33.023438 167.816406 33.871094 C 167.816406 34.050781 168.058594 33.992188 168.238281 33.992188 L 168.359375 34.355469 C 168.421875 34.355469 168.421875 34.355469 168.421875 34.355469 C 168.421875 34.171875 168.421875 34.050781 168.359375 33.871094 C 168.359375 33.808594 168.480469 33.507812 168.300781 33.449219 C 168.058594 33.386719 167.996094 33.628906 167.996094 33.75 C 167.9375 33.808594 167.875 33.808594 167.816406 33.75 C 167.636719 32.902344 167.515625 31.996094 167.515625 31.089844 C 167.515625 31.03125 167.515625 31.03125 167.574219 31.03125 L 167.636719 30.96875 C 167.636719 30.910156 167.636719 30.910156 167.636719 30.96875 C 167.753906 31.816406 168.117188 32.480469 168.421875 33.265625 C 168.480469 33.328125 168.480469 33.449219 168.480469 33.570312 C 168.480469 33.570312 168.480469 33.628906 168.542969 33.570312 C 168.542969 33.449219 168.542969 33.328125 168.480469 33.207031 C 168.179688 32.359375 167.9375 31.511719 167.816406 30.605469 C 168.300781 30.605469 168.78125 30.605469 169.265625 30.546875 C 169.328125 30.546875 169.328125 30.546875 169.328125 30.546875 C 169.570312 30.910156 169.691406 31.273438 169.8125 31.632812 C 169.8125 31.632812 169.8125 31.695312 169.75 31.695312 L 169.570312 31.632812 C 169.507812 31.632812 169.507812 31.632812 169.507812 31.632812 C 169.507812 31.695312 169.570312 31.695312 169.570312 31.695312 C 170.292969 31.816406 169.871094 32.238281 169.929688 32.660156 C 169.992188 33.085938 170.113281 33.75 170.292969 34.65625 C 170.292969 34.65625 170.292969 34.65625 170.234375 34.65625 C 169.628906 34.777344 169.023438 34.898438 168.421875 35.019531 C 168.421875 35.078125 168.359375 35.019531 168.359375 35.019531 L 168.300781 34.898438 C 168.238281 34.835938 168.238281 34.835938 168.238281 34.898438 C 168.238281 35.078125 168.238281 35.140625 168.058594 35.261719 C 167.9375 35.320312 167.753906 35.382812 167.695312 35.503906 C 167.695312 35.5625 167.636719 35.5625 167.636719 35.5625 C 167.089844 35.261719 166.605469 35.140625 166.425781 34.476562 C 166.246094 33.992188 165.640625 34.113281 165.519531 33.6875 C 165.457031 33.507812 165.398438 33.023438 165.035156 33.085938 C 164.734375 33.207031 164.550781 33.808594 164.492188 34.113281 C 165.519531 34.714844 166.546875 35.261719 167.636719 35.746094 C 167.636719 35.804688 167.636719 35.746094 167.695312 35.746094 C 167.753906 35.625 167.875 35.503906 168.058594 35.382812 C 168.179688 35.320312 168.238281 35.441406 168.359375 35.503906 C 168.421875 35.503906 168.421875 35.441406 168.421875 35.441406 L 168.542969 35.320312 C 168.542969 35.320312 168.542969 35.320312 168.601562 35.320312 C 168.722656 35.5625 168.664062 35.925781 168.421875 36.046875 C 168.421875 36.105469 168.359375 36.105469 168.359375 36.046875 C 168.238281 36.046875 167.996094 35.925781 167.875 36.046875 C 167.636719 36.226562 167.515625 36.347656 167.515625 36.710938 C 167.515625 36.953125 167.695312 37.316406 167.9375 37.011719 C 168.117188 36.894531 168.179688 36.652344 168.179688 36.410156 C 168.300781 36.289062 168.480469 36.226562 168.542969 36.167969 C 168.84375 35.925781 168.964844 35.503906 168.722656 35.199219 C 168.722656 35.140625 168.722656 35.140625 168.78125 35.140625 L 170.234375 34.898438 C 170.292969 34.898438 170.355469 34.898438 170.355469 34.957031 C 170.355469 35.078125 170.414062 35.261719 170.414062 35.441406 C 170.535156 35.867188 170.957031 36.652344 170.535156 37.011719 C 170.292969 37.195312 170.113281 37.375 169.929688 37.617188 C 169.691406 38.042969 169.265625 37.859375 169.023438 37.496094 C 169.023438 37.496094 169.023438 37.4375 169.023438 37.4375 C 169.023438 37.195312 169.023438 37.011719 168.902344 36.773438 C 168.902344 36.773438 168.902344 36.773438 168.84375 36.773438 C 168.84375 36.773438 168.84375 36.773438 168.84375 36.832031 C 168.902344 37.011719 168.964844 37.195312 168.964844 37.375 C 168.964844 37.496094 168.84375 37.496094 168.78125 37.496094 C 168.601562 37.496094 168.179688 37.4375 168.179688 37.195312 C 168.179688 37.132812 168.179688 37.011719 168.238281 36.953125 C 168.238281 36.894531 168.179688 36.894531 168.179688 36.953125 C 168.117188 37.074219 167.816406 37.4375 167.574219 37.253906 C 167.273438 37.132812 167.332031 36.53125 167.453125 36.289062 C 167.515625 36.226562 167.453125 36.167969 167.453125 36.167969 C 166.367188 35.683594 165.398438 35.140625 164.429688 34.535156 C 164.429688 34.476562 164.429688 34.476562 164.429688 34.535156 L 164.371094 34.65625 C 164.371094 34.65625 164.371094 34.65625 164.429688 34.714844 L 167.394531 36.226562 C 167.453125 36.226562 167.453125 36.226562 167.453125 36.289062 L 167.394531 36.410156 C 167.394531 36.46875 167.332031 36.46875 167.332031 36.46875 C 166.304688 35.984375 165.339844 35.503906 164.371094 35.019531 C 164.371094 35.019531 164.3125 35.019531 164.3125 35.019531 C 164.070312 36.167969 163.523438 37.496094 163.222656 38.765625 C 163.222656 38.765625 163.222656 38.765625 163.164062 38.765625 C 162.4375 38.101562 161.710938 37.496094 160.925781 36.953125 C 160.925781 36.894531 160.925781 36.894531 160.925781 36.894531 L 161.589844 36.832031 C 161.652344 36.832031 161.652344 36.773438 161.652344 36.773438 C 160.140625 35.683594 158.570312 34.535156 156.875 33.808594 C 156.875 33.75 156.875 33.75 156.875 33.75 L 157.542969 33.328125 L 156.996094 32.964844 C 156.9375 32.964844 156.996094 32.902344 156.996094 32.902344 L 157.964844 32.539062 C 158.023438 32.539062 158.023438 32.539062 157.964844 32.539062 L 157.664062 32.421875 C 157.664062 32.421875 157.664062 32.421875 157.664062 32.359375 L 158.085938 32.359375 C 158.085938 32.359375 158.085938 32.300781 158.085938 32.300781 C 157.902344 31.996094 157.664062 31.996094 157.359375 31.996094 C 157.300781 31.996094 157.300781 31.9375 157.300781 31.9375 L 157.480469 31.511719 C 157.480469 31.453125 157.542969 31.453125 157.542969 31.453125 C 157.902344 31.332031 158.207031 31.574219 158.386719 31.875 C 158.507812 32.058594 158.992188 32.179688 159.292969 32.238281 C 159.292969 32.238281 159.292969 32.238281 159.292969 32.300781 C 158.929688 32.78125 158.386719 33.449219 158.144531 33.992188 C 158.144531 33.992188 158.144531 34.050781 158.144531 34.050781 C 158.144531 34.050781 158.207031 34.050781 158.207031 34.050781 L 159.535156 32.238281 C 159.597656 32.238281 159.535156 32.179688 159.535156 32.179688 C 159.113281 32.058594 158.628906 31.875 158.328125 31.574219 C 158.085938 31.453125 157.902344 31.152344 157.601562 31.152344 C 157.601562 31.152344 157.601562 31.152344 157.601562 31.089844 L 157.664062 30.667969 C 157.664062 30.605469 157.664062 30.605469 157.664062 30.605469 C 157.179688 30.425781 156.753906 30.246094 156.273438 30.363281 C 156.273438 30.363281 156.210938 30.425781 156.210938 30.425781 L 156.152344 30.726562 C 156.152344 30.726562 156.210938 30.726562 156.210938 30.726562 L 156.9375 30.726562 C 156.996094 30.726562 156.996094 30.667969 156.996094 30.667969 L 157.058594 30.484375 C 157.058594 30.425781 157.058594 30.425781 157.058594 30.425781 L 157.421875 30.605469 C 157.480469 30.605469 157.480469 30.667969 157.480469 30.667969 L 157.179688 31.9375 C 157.179688 31.996094 157.179688 31.996094 157.179688 31.996094 C 157.359375 32.117188 157.179688 32.601562 156.875 32.539062 C 156.816406 32.539062 156.753906 32.480469 156.816406 32.421875 L 156.875 31.9375 C 156.515625 32.058594 156.332031 32.238281 156.03125 31.9375 C 155.910156 31.875 155.726562 31.753906 155.546875 31.695312 C 155.546875 31.695312 155.488281 31.753906 155.546875 31.753906 C 155.96875 32.300781 156.394531 32.84375 156.515625 33.628906 C 156.453125 33.570312 156.394531 33.570312 156.332031 33.507812 C 155.910156 32.964844 155.425781 32.480469 155.003906 31.996094 C 154.941406 31.996094 154.882812 31.996094 154.882812 31.996094 C 154.640625 32.117188 154.457031 32.300781 154.398438 32.539062 C 154.398438 32.601562 154.398438 32.601562 154.457031 32.601562 L 155.0625 32.480469 C 155.125 32.539062 155.0625 32.539062 155.0625 32.539062 C 154.578125 32.78125 154.15625 33.144531 153.855469 33.570312 C 153.792969 33.628906 153.792969 33.628906 153.855469 33.570312 C 153.914062 33.570312 153.976562 33.507812 154.035156 33.449219 C 154.398438 33.207031 154.761719 32.902344 155.246094 32.84375 C 155.003906 33.023438 154.820312 33.207031 154.699219 33.386719 C 154.699219 33.449219 154.699219 33.507812 154.761719 33.507812 C 155.125 33.570312 154.519531 34.292969 154.398438 34.414062 C 154.398438 34.414062 154.398438 34.476562 154.457031 34.476562 C 154.761719 34.476562 155.125 34.535156 155.488281 34.65625 C 155.003906 34.714844 153.855469 34.898438 153.550781 35.320312 C 153.492188 35.382812 153.550781 35.503906 153.613281 35.441406 C 154.21875 35.199219 155.488281 34.898438 155.96875 35.382812 C 156.089844 35.503906 156.03125 35.625 155.910156 35.625 C 155.246094 35.683594 154.578125 35.804688 153.914062 35.984375 C 153.792969 36.046875 153.792969 36.046875 153.914062 36.046875 L 156.695312 36.105469 C 156.816406 36.105469 156.875 36.167969 156.753906 36.167969 C 156.273438 36.347656 155.125 36.410156 154.882812 36.894531 C 154.699219 37.253906 155.367188 37.558594 155.605469 37.679688 C 155.605469 37.679688 155.667969 37.679688 155.667969 37.679688 C 155.667969 37.738281 155.667969 37.800781 155.667969 37.800781 C 155.605469 37.800781 155.605469 37.859375 155.605469 37.859375 L 155.367188 39.1875 C 155.605469 38.707031 155.789062 38.28125 155.910156 37.800781 C 155.910156 37.800781 155.96875 37.800781 155.96875 37.800781 C 156.394531 37.859375 156.753906 37.800781 157.117188 37.679688 C 157.117188 37.679688 157.179688 37.679688 157.179688 37.679688 C 157.179688 37.738281 157.179688 37.738281 157.179688 37.738281 L 156.515625 38.101562 C 156.453125 38.160156 156.453125 38.160156 156.515625 38.160156 L 156.816406 38.222656 C 156.875 38.28125 156.875 38.28125 156.875 38.34375 C 156.515625 38.828125 156.210938 39.371094 155.910156 39.914062 C 155.726562 40.15625 155.546875 40.398438 155.546875 40.699219 C 155.488281 40.820312 155.488281 41.003906 155.488281 41.125 C 155.425781 41.183594 155.425781 41.246094 155.367188 41.246094 C 154.820312 41.363281 154.398438 41.789062 153.914062 41.910156 C 153.855469 41.910156 153.855469 41.910156 153.855469 41.910156 C 153.671875 41.789062 153.792969 41.605469 153.976562 41.546875 C 154.15625 41.484375 154.398438 41.425781 154.640625 41.304688 C 154.640625 41.304688 154.640625 41.246094 154.640625 41.246094 L 154.578125 41.246094 C 154.339844 41.363281 154.15625 41.363281 153.914062 41.363281 C 153.855469 41.363281 153.792969 41.304688 153.792969 41.246094 C 153.792969 41.183594 153.855469 41.183594 153.914062 41.183594 C 154.035156 41.125 154.097656 41.125 154.21875 41.0625 C 154.21875 41.003906 154.21875 41.003906 154.21875 41.003906 L 153.914062 40.820312 C 153.855469 40.820312 153.855469 40.699219 153.855469 40.640625 C 153.855469 40.519531 153.914062 40.398438 153.976562 40.277344 C 154.15625 39.792969 154.339844 39.308594 154.398438 38.828125 C 154.398438 38.765625 154.398438 38.765625 154.398438 38.765625 C 154.15625 39.429688 153.914062 40.035156 153.671875 40.640625 C 153.613281 40.882812 153.492188 41.183594 153.671875 41.363281 C 153.671875 41.363281 153.671875 41.363281 153.671875 41.425781 C 153.371094 41.605469 153.492188 42.210938 153.914062 42.089844 C 154.398438 41.96875 154.820312 41.667969 155.304688 41.546875 C 155.304688 41.546875 155.367188 41.546875 155.367188 41.546875 C 155.183594 41.910156 154.277344 43.359375 154.699219 43.601562 C 154.761719 43.601562 154.761719 43.601562 154.761719 43.601562 C 154.761719 42.875 155.246094 42.152344 155.605469 41.546875 C 155.605469 41.484375 155.667969 41.484375 155.726562 41.546875 C 155.847656 41.726562 155.96875 41.910156 156.089844 42.152344 C 156.089844 41.847656 155.96875 41.425781 155.726562 41.304688 C 155.667969 41.304688 155.667969 41.246094 155.667969 41.246094 L 155.726562 40.941406 C 155.726562 40.882812 155.726562 40.882812 155.667969 40.882812 L 155.605469 40.820312 C 155.605469 40.820312 155.546875 40.820312 155.546875 40.761719 C 155.726562 40.457031 155.847656 40.21875 156.03125 39.976562 C 156.515625 39.1875 157.058594 38.402344 157.542969 37.558594 C 157.542969 37.558594 157.542969 37.496094 157.480469 37.496094 L 157.058594 37.558594 C 156.996094 37.558594 156.996094 37.496094 156.996094 37.496094 C 157.542969 37.132812 158.386719 36.652344 158.144531 35.867188 C 158.085938 35.746094 157.964844 35.503906 157.722656 35.140625 C 157.421875 34.777344 157.117188 34.476562 156.875 34.113281 C 156.816406 34.050781 156.816406 34.050781 156.9375 34.050781 C 157.480469 34.355469 158.023438 34.65625 158.570312 34.957031 C 158.628906 35.019531 158.628906 35.019531 158.570312 35.019531 L 158.144531 35.140625 L 159.414062 35.804688 C 159.414062 35.867188 159.414062 35.867188 159.355469 35.867188 L 158.808594 35.984375 C 160.320312 36.953125 161.832031 37.980469 163.164062 39.1875 C 163.222656 39.1875 163.222656 39.1875 163.222656 39.25 C 163.34375 40.21875 163.402344 40.761719 163.042969 41.667969 C 163.042969 41.667969 163.042969 41.667969 163.042969 41.726562 C 164.3125 42.03125 165.519531 42.210938 166.847656 42.273438 C 167.089844 42.273438 167.332031 42.332031 167.453125 42.574219 C 167.753906 43.058594 168.179688 43.902344 168.058594 44.570312 C 167.695312 46.140625 167.453125 47.410156 167.394531 48.921875 C 167.332031 49.34375 167.152344 49.523438 166.847656 49.828125 C 166.789062 49.886719 166.667969 50.007812 166.488281 50.25 C 166.304688 50.613281 166.125 50.976562 165.882812 51.335938 C 165.640625 51.699219 165.339844 52.0625 165.097656 52.484375 C 164.976562 52.605469 164.792969 52.726562 164.671875 52.484375 C 164.492188 51.941406 163.886719 50.308594 164.25 49.886719 C 164.492188 49.644531 165.15625 50.007812 165.398438 50.128906 C 165.882812 49.828125 166.304688 49.160156 165.339844 49.042969 C 165.339844 49.042969 165.339844 49.042969 165.339844 48.980469 C 165.398438 48.738281 165.699219 48.617188 165.882812 48.496094 C 165.941406 48.496094 166.003906 48.4375 166.003906 48.375 C 166.0625 48.132812 166.0625 47.894531 166.246094 47.652344 C 166.367188 47.46875 166.488281 47.226562 166.546875 47.046875 C 166.847656 46.140625 167.03125 44.6875 166.367188 43.902344 C 165.820312 43.300781 164.613281 43.78125 163.949219 43.902344 C 163.765625 43.964844 163.523438 43.964844 163.34375 43.78125 C 163.101562 43.601562 162.800781 43.359375 162.496094 43.179688 C 162.496094 43.117188 162.4375 43.179688 162.4375 43.179688 C 163.164062 43.964844 163.949219 44.386719 164.914062 44.6875 C 165.339844 44.808594 165.398438 45.050781 165.457031 45.476562 C 165.519531 45.898438 165.578125 46.5625 165.339844 46.925781 C 164.492188 47.953125 163.828125 48.859375 163.28125 50.070312 C 162.980469 50.734375 162.496094 50.550781 161.953125 50.792969 C 161.652344 50.914062 161.289062 51.035156 160.984375 51.21875 C 160.382812 51.457031 159.65625 51.398438 159.113281 51.335938 C 158.386719 51.21875 159.957031 49.644531 160.140625 49.464844 C 160.261719 49.34375 160.441406 49.28125 160.625 49.222656 C 160.984375 49.222656 160.804688 49.765625 160.925781 49.949219 C 161.105469 50.25 161.710938 50.070312 161.589844 49.585938 C 161.589844 49.523438 161.53125 49.464844 161.53125 49.402344 C 161.46875 49.402344 161.53125 49.402344 161.53125 49.402344 C 161.832031 49.34375 161.953125 49.34375 162.195312 49.101562 C 162.316406 48.921875 162.4375 48.800781 162.496094 48.738281 C 163.34375 48.316406 164.128906 46.984375 163.886719 46.019531 C 163.765625 45.414062 163.222656 45.355469 162.679688 45.292969 C 162.132812 45.234375 161.46875 45.113281 160.804688 44.929688 C 160.320312 44.808594 159.839844 44.75 159.292969 44.808594 C 159.050781 44.808594 158.871094 44.808594 158.628906 44.628906 C 158.628906 44.628906 158.628906 44.628906 158.570312 44.628906 C 158.144531 45.234375 157.542969 45.597656 156.816406 45.71875 C 155.546875 45.898438 154.820312 45.292969 154.640625 44.085938 C 154.640625 44.085938 154.578125 44.085938 154.578125 44.085938 C 154.457031 44.328125 154.15625 44.449219 153.914062 44.570312 C 153.671875 44.75 153.371094 44.570312 153.191406 44.386719 C 153.128906 44.386719 153.128906 44.386719 153.191406 44.328125 L 154.21875 43.722656 C 154.21875 43.722656 154.21875 43.660156 154.21875 43.660156 C 153.976562 43.722656 153.734375 43.722656 153.550781 43.84375 C 153.429688 43.84375 153.371094 43.84375 153.3125 43.78125 C 153.3125 43.78125 153.25 43.78125 153.25 43.78125 C 151.679688 44.023438 150.167969 43.359375 148.839844 42.632812 C 148.777344 42.632812 148.777344 42.632812 148.777344 42.632812 C 149.019531 43.421875 148.839844 43.964844 148.234375 44.386719 C 147.570312 44.75 147.023438 45.171875 146.601562 45.535156 C 146.238281 45.835938 146.058594 46.019531 145.9375 46.078125 C 145.394531 46.503906 144.910156 46.625 144.304688 46.867188 C 143.640625 47.167969 143.21875 47.894531 143.640625 48.617188 C 144.0625 49.34375 144.605469 49.886719 145.332031 50.308594 C 145.9375 50.734375 146.179688 50.855469 146.300781 51.578125 C 146.480469 52.367188 146.964844 52.910156 146.84375 53.695312 C 146.78125 54.179688 146.722656 54.601562 146.660156 55.023438 C 146.601562 55.023438 146.601562 55.085938 146.601562 55.085938 C 146.179688 55.265625 145.152344 53.996094 144.96875 53.695312 C 144.667969 53.273438 145.453125 52.96875 145.695312 52.789062 C 145.695312 52.789062 145.695312 52.789062 145.695312 52.726562 C 145.816406 52.183594 145.210938 52.183594 144.910156 52.425781 C 144.910156 51.820312 144.605469 51.398438 144.304688 50.914062 C 143.519531 49.949219 142.734375 49.28125 141.644531 48.253906 C 141.28125 47.953125 140.738281 47.167969 141.34375 46.804688 C 141.707031 46.625 142.007812 46.503906 142.308594 46.320312 C 142.792969 46.019531 143.097656 45.71875 143.335938 45.234375 C 143.519531 44.929688 143.640625 44.628906 143.761719 44.265625 C 143.761719 44.265625 143.699219 44.265625 143.699219 44.265625 C 142.492188 44.570312 141.34375 44.628906 140.132812 44.808594 C 138.503906 45.050781 138.078125 46.984375 138.261719 48.316406 C 138.320312 49.101562 138.746094 49.707031 138.140625 50.371094 C 137.71875 50.855469 137.535156 51.457031 137.171875 51.882812 C 136.808594 52.304688 136.386719 52.726562 135.964844 53.089844 C 135.480469 53.511719 135.421875 52.484375 135.421875 52.246094 C 135.421875 51.882812 135.421875 50.855469 135.660156 50.613281 C 135.78125 50.492188 136.144531 50.492188 136.328125 50.492188 C 136.449219 50.550781 136.570312 50.613281 136.691406 50.613281 C 136.992188 50.671875 137.171875 50.308594 137.050781 50.070312 C 136.992188 50.070312 136.992188 50.070312 136.992188 50.007812 C 136.871094 49.949219 136.75 49.949219 136.570312 50.007812 C 136.570312 50.007812 136.570312 49.949219 136.570312 49.949219 C 137.414062 49.042969 137.171875 47.226562 137.050781 46.078125 C 136.570312 46.441406 136.023438 46.746094 135.421875 46.925781 C 135.421875 46.925781 135.421875 46.925781 135.359375 46.925781 C 135.359375 46.925781 135.359375 46.925781 135.421875 46.867188 C 135.722656 46.683594 136.144531 46.382812 136.328125 46.019531 C 136.386719 45.957031 136.328125 45.957031 136.328125 46.019531 C 135.78125 46.441406 135.238281 46.625 134.574219 46.804688 C 134.574219 46.804688 134.511719 46.746094 134.574219 46.746094 C 134.996094 46.441406 135.359375 46.019531 135.722656 45.597656 C 135.722656 45.597656 135.722656 45.597656 135.660156 45.597656 C 135.179688 45.898438 134.632812 46.199219 134.03125 46.382812 C 134.394531 46.078125 134.753906 45.65625 134.996094 45.234375 C 134.996094 45.171875 134.996094 45.113281 134.9375 45.171875 C 134.753906 45.234375 134.574219 45.234375 134.394531 45.234375 C 133.789062 45.292969 133.425781 44.992188 133.304688 44.386719 C 133.304688 44.328125 133.304688 44.328125 133.304688 44.328125 C 134.453125 45.050781 135.601562 43.964844 135.84375 42.9375 C 135.84375 42.875 135.84375 42.875 135.78125 42.875 C 135.480469 43.179688 135.179688 43.421875 134.753906 43.539062 C 134.996094 43.058594 134.695312 42.574219 134.511719 42.089844 C 134.332031 41.605469 134.511719 40.941406 134.753906 40.457031 C 134.816406 40.457031 134.816406 40.457031 134.816406 40.457031 C 134.753906 41.125 134.695312 41.605469 135.179688 42.152344 C 135.179688 42.210938 135.179688 42.152344 135.179688 42.152344 C 135.238281 41.125 135.601562 40.277344 136.265625 39.492188 C 136.328125 39.492188 136.328125 39.492188 136.265625 39.492188 C 135.84375 39.792969 135.480469 40.21875 135.179688 40.699219 C 135.117188 40.035156 135.179688 39.308594 135.542969 38.765625 C 135.84375 38.28125 136.570312 37.800781 137.050781 37.4375 C 137.050781 37.375 137.113281 37.375 137.050781 37.375 C 136.691406 37.558594 136.265625 37.738281 135.84375 37.800781 C 135.84375 37.800781 135.84375 37.800781 135.84375 37.738281 L 136.449219 37.074219 C 136.449219 37.011719 136.449219 37.011719 136.449219 37.011719 C 135.722656 37.316406 135.300781 37.921875 135.117188 38.644531 C 134.996094 37.4375 135.238281 36.953125 136.386719 36.46875 C 136.570312 36.347656 136.75 36.289062 136.871094 36.046875 C 136.871094 36.046875 136.808594 36.046875 136.808594 36.046875 L 136.144531 36.289062 C 136.085938 36.289062 136.085938 36.289062 136.085938 36.289062 C 137.171875 35.078125 139.167969 35.019531 140.558594 35.382812 C 141.28125 35.625 141.886719 36.167969 142.613281 36.289062 C 142.671875 36.289062 142.671875 36.289062 142.671875 36.289062 C 144.183594 35.382812 145.816406 34.957031 147.570312 35.140625 C 147.570312 35.140625 147.628906 35.140625 147.628906 35.199219 C 147.328125 36.226562 147.144531 37.253906 147.144531 38.34375 L 147.929688 38.464844 C 147.929688 38.464844 147.929688 38.464844 147.929688 38.523438 L 147.871094 39.007812 L 147.144531 39.007812 L 147.085938 39.308594 C 147.085938 39.371094 147.085938 39.371094 147.085938 39.371094 C 147.691406 39.492188 148.234375 39.550781 148.839844 39.550781 C 148.957031 39.550781 149.019531 39.492188 149.078125 39.371094 C 149.140625 39.128906 149.199219 38.886719 149.261719 38.644531 C 149.261719 38.585938 149.320312 38.585938 149.320312 38.644531 C 149.503906 39.007812 149.746094 39.492188 150.289062 39.492188 C 150.53125 39.492188 150.832031 39.429688 151.074219 39.308594 C 152.402344 38.765625 153.128906 37.558594 153.3125 36.105469 C 153.3125 36.105469 153.25 36.105469 153.25 36.105469 C 152.523438 37.074219 151.316406 36.710938 150.53125 36.046875 C 150.53125 36.046875 150.46875 36.105469 150.46875 36.105469 C 150.652344 36.652344 150.894531 36.832031 151.375 37.195312 C 151.679688 37.375 151.859375 37.617188 152.042969 37.859375 C 152.160156 38.101562 151.617188 38.34375 151.4375 38.402344 C 151.558594 38.28125 151.738281 38.101562 151.558594 37.980469 C 151.074219 37.496094 150.652344 36.953125 150.347656 36.289062 C 150.226562 36.046875 150.046875 35.984375 149.746094 35.804688 C 149.503906 35.625 149.199219 35.140625 149.441406 34.835938 C 149.441406 34.777344 149.5625 34.777344 149.5625 34.835938 C 149.925781 35.078125 150.410156 35.382812 150.894531 35.320312 C 150.894531 35.320312 150.894531 35.261719 150.894531 35.261719 C 150.410156 35.199219 150.046875 34.957031 149.683594 34.714844 C 149.625 34.65625 149.5625 34.65625 149.503906 34.597656 C 149.503906 34.597656 149.441406 34.597656 149.441406 34.597656 C 149.261719 34.714844 149.199219 34.835938 149.140625 35.019531 C 149.140625 35.078125 149.140625 35.078125 149.140625 35.078125 L 148.597656 35.078125 C 148.597656 35.078125 148.597656 35.078125 148.597656 35.019531 C 148.414062 33.808594 149.261719 34.050781 150.046875 34.171875 C 150.53125 34.234375 150.167969 33.628906 149.984375 33.507812 C 149.503906 33.144531 148.839844 33.808594 148.292969 33.570312 C 148.050781 33.507812 147.992188 33.144531 147.992188 32.902344 C 148.050781 32.539062 148.292969 32.480469 148.597656 32.480469 C 149.199219 32.421875 149.683594 32.480469 150.105469 32.78125 C 150.167969 32.78125 150.167969 32.78125 150.167969 32.78125 C 150.167969 32.601562 150.167969 32.480469 150.289062 32.359375 C 150.46875 31.996094 151.132812 31.816406 151.496094 31.753906 C 151.496094 31.695312 151.496094 31.753906 151.496094 31.753906 C 151.253906 32.238281 151.132812 32.660156 151.4375 33.144531 C 151.738281 32.480469 152.042969 31.996094 152.707031 31.574219 C 152.707031 31.574219 152.765625 31.632812 152.707031 31.632812 C 152.28125 32.359375 152.042969 33.085938 152.042969 33.929688 C 152.464844 32.964844 153.007812 32.179688 153.792969 31.453125 C 153.792969 31.453125 153.792969 31.394531 153.734375 31.394531 C 152.765625 31.210938 151.859375 31.273438 150.953125 31.695312 C 150.953125 31.695312 150.894531 31.695312 150.953125 31.632812 C 151.015625 31.273438 151.195312 30.847656 151.617188 30.910156 C 151.679688 30.910156 151.679688 30.910156 151.679688 30.910156 C 151.921875 30.484375 151.859375 30.246094 151.679688 29.761719 C 151.496094 29.398438 151.375 28.976562 151.316406 28.613281 C 151.316406 28.613281 151.253906 28.613281 151.253906 28.613281 C 150.832031 29.820312 150.347656 30.910156 148.898438 30.96875 C 148.414062 31.03125 147.871094 31.089844 147.328125 31.210938 C 147.023438 31.210938 146.78125 31.152344 146.84375 30.789062 C 146.964844 30.304688 147.75 30.183594 148.171875 30.246094 C 148.597656 30.304688 149.019531 30.304688 149.441406 30.304688 C 150.046875 30.304688 150.347656 30.003906 150.589844 29.519531 C 150.773438 29.035156 150.953125 28.613281 151.132812 28.1875 C 151.4375 27.34375 152.222656 26.921875 153.007812 26.617188 C 153.550781 26.375 154.097656 26.558594 154.640625 26.375 C 154.699219 26.375 154.699219 26.375 154.640625 26.375 C 153.976562 26.011719 153.371094 25.890625 152.644531 26.316406 C 151.921875 26.679688 151.316406 27.101562 151.015625 27.886719 C 150.773438 28.429688 150.589844 28.976562 150.289062 29.398438 C 150.105469 29.761719 149.804688 29.820312 149.382812 29.699219 C 148.839844 29.640625 148.414062 29.398438 147.871094 29.640625 C 147.628906 29.761719 147.386719 29.941406 147.207031 30.0625 C 147.023438 30.246094 146.84375 30.183594 146.78125 30.003906 C 146.660156 29.761719 146.601562 29.699219 146.359375 29.519531 C 146.058594 29.398438 145.875 29.277344 145.753906 28.914062 C 145.632812 28.550781 145.515625 28.308594 145.453125 28.070312 C 145.332031 27.828125 145.03125 27.765625 144.96875 27.464844 C 144.910156 27.34375 144.910156 27.160156 144.910156 26.980469 C 144.847656 26.011719 143.335938 26.496094 142.855469 26.558594 C 142.492188 26.558594 142.550781 26.316406 142.550781 26.011719 C 142.550781 25.652344 142.550781 25.289062 142.613281 24.925781 C 142.613281 24.683594 142.855469 24.140625 143.097656 24.503906 C 143.457031 25.046875 144.125 25.226562 144.726562 25.347656 C 145.273438 25.46875 145.695312 25.589844 145.695312 26.253906 C 145.695312 26.496094 145.515625 26.980469 145.574219 27.34375 C 145.996094 28.855469 147.328125 29.15625 148.65625 28.550781 C 148.65625 28.550781 148.65625 28.492188 148.65625 28.492188 L 147.871094 28.492188 C 147.808594 28.492188 147.808594 28.429688 147.808594 28.429688 C 148.355469 28.128906 148.957031 27.828125 149.382812 27.34375 C 150.289062 26.253906 151.859375 25.226562 153.3125 25.167969 C 153.371094 25.167969 153.371094 25.105469 153.3125 25.105469 C 151.738281 24.984375 150.226562 26.074219 149.199219 27.222656 C 149.019531 27.402344 148.777344 27.707031 148.535156 27.828125 C 147.992188 28.1875 147.449219 27.828125 146.84375 27.585938 C 146.421875 27.34375 146.601562 26.800781 146.480469 26.4375 C 146.179688 25.53125 145.03125 24.683594 144.125 24.5625 C 144.847656 24.078125 145.753906 23.898438 146.480469 24.320312 C 146.78125 24.503906 147.265625 24.804688 147.628906 24.804688 C 147.628906 24.804688 147.628906 24.746094 147.628906 24.746094 C 147.449219 24.441406 147.144531 24.261719 146.84375 24.140625 C 146.78125 24.140625 146.78125 24.140625 146.84375 24.078125 C 147.507812 23.65625 147.570312 22.871094 148.535156 23.050781 C 149.078125 23.171875 151.800781 24.382812 152.34375 24.078125 Z M 153.550781 23.777344 C 154.097656 23.835938 154.578125 24.019531 155.003906 24.382812 C 155.003906 24.382812 155.0625 24.382812 155.0625 24.382812 C 154.699219 23.835938 154.15625 23.714844 153.550781 23.777344 Z M 152.042969 24.5625 C 152.828125 24.261719 153.371094 24.382812 154.097656 24.5625 C 154.15625 24.625 154.15625 24.5625 154.15625 24.5625 C 153.734375 24.261719 153.3125 24.140625 152.828125 24.199219 C 152.523438 24.199219 152.28125 24.199219 152.160156 24.261719 C 151.558594 24.441406 150.832031 24.683594 150.226562 24.683594 C 149.746094 24.683594 149.320312 24.503906 148.839844 24.382812 C 148.839844 24.320312 148.839844 24.382812 148.839844 24.382812 C 148.777344 24.382812 148.839844 24.382812 148.839844 24.382812 C 149.683594 24.863281 150.589844 24.984375 151.496094 24.746094 C 151.496094 24.746094 151.679688 24.683594 152.042969 24.5625 Z M 152.886719 24.804688 C 153.492188 24.804688 154.15625 25.289062 154.640625 25.710938 C 154.640625 25.773438 154.640625 25.773438 154.640625 25.710938 C 154.398438 25.226562 153.734375 24.804688 153.25 24.683594 C 152.644531 24.5625 151.679688 24.683594 151.074219 24.925781 C 150.347656 25.167969 149.625 25.410156 148.898438 25.652344 C 148.597656 25.710938 148.292969 25.773438 147.992188 25.773438 C 147.992188 25.773438 147.929688 25.773438 147.992188 25.832031 C 148.292969 26.132812 149.320312 25.832031 149.804688 25.652344 C 150.894531 25.226562 151.800781 24.804688 152.886719 24.804688 Z M 151.738281 27.707031 C 151.679688 28.492188 152.34375 29.335938 152.765625 29.941406 C 152.828125 29.941406 152.828125 29.941406 152.828125 29.882812 C 152.402344 29.15625 152.101562 28.429688 151.800781 27.644531 C 151.800781 27.644531 151.738281 27.644531 151.738281 27.707031 Z M 167.089844 31.03125 L 166.96875 30.96875 C 166.605469 31.394531 166.304688 31.816406 165.941406 32.238281 C 166.003906 32.238281 166.003906 32.238281 166.003906 32.238281 C 166.367188 31.875 166.726562 31.453125 167.152344 31.089844 C 167.152344 31.089844 167.152344 31.089844 167.089844 31.03125 Z M 169.207031 31.9375 C 169.023438 32.179688 169.085938 32.601562 169.449219 32.601562 C 169.449219 32.601562 169.449219 32.601562 169.449219 32.539062 C 169.328125 32.480469 169.265625 32.480469 169.207031 32.421875 C 169.207031 32.359375 169.207031 32.359375 169.207031 32.359375 C 169.265625 32.179688 169.449219 32.179688 169.507812 32.058594 C 169.507812 31.996094 169.507812 31.996094 169.449219 31.996094 L 169.265625 31.875 C 169.207031 31.875 169.207031 31.875 169.207031 31.9375 Z M 168.902344 34.050781 L 169.328125 33.449219 C 169.328125 33.386719 169.144531 33.507812 169.023438 33.6875 C 168.902344 33.871094 168.84375 33.992188 168.84375 34.050781 C 168.84375 34.050781 168.902344 34.050781 168.902344 34.050781 Z M 153.855469 31.632812 C 153.070312 32.660156 152.765625 33.871094 152.886719 35.140625 C 152.886719 35.199219 152.886719 35.199219 152.886719 35.199219 C 153.3125 33.929688 153.855469 32.78125 154.578125 31.753906 L 153.914062 31.574219 C 153.855469 31.574219 153.855469 31.574219 153.855469 31.632812 Z M 170.171875 36.894531 C 170.234375 36.894531 170.355469 36.773438 170.414062 36.652344 C 170.414062 36.46875 170.414062 36.347656 170.292969 36.289062 C 170.171875 36.289062 170.113281 36.410156 170.050781 36.53125 C 169.992188 36.710938 170.050781 36.832031 170.171875 36.894531 Z M 157.78125 37.074219 C 157.664062 37.195312 157.601562 37.316406 157.601562 37.4375 L 157.84375 37.132812 C 157.84375 37.132812 157.84375 37.074219 157.78125 37.074219 Z M 141.464844 37.316406 C 140.679688 37.132812 139.53125 37.316406 139.226562 38.28125 C 138.867188 39.308594 139.53125 40.398438 139.410156 41.425781 C 139.347656 42.210938 138.746094 42.875 138.140625 43.359375 C 139.226562 43.480469 140.4375 43.300781 140.859375 42.152344 C 141.160156 41.425781 140.738281 40.882812 140.679688 40.21875 C 140.558594 39.1875 141.042969 38.160156 141.523438 37.375 C 141.523438 37.316406 141.523438 37.316406 141.464844 37.316406 Z M 156.453125 42.9375 L 155.546875 42.03125 C 155.488281 42.089844 155.667969 42.332031 155.910156 42.574219 C 156.152344 42.816406 156.394531 42.996094 156.453125 42.9375 Z M 138.746094 39.613281 C 138.746094 39.613281 139.226562 41.003906 138.320312 41.425781 C 138.261719 41.425781 138.261719 41.425781 138.261719 41.425781 L 138.320312 41.605469 C 138.625 41.546875 138.867188 41.246094 138.925781 41.003906 C 139.105469 40.578125 138.984375 40.035156 138.804688 39.613281 C 138.804688 39.613281 138.804688 39.613281 138.746094 39.613281 Z M 156.03125 43.480469 C 156.453125 43.480469 156.695312 43.601562 156.996094 43.722656 C 157.058594 43.722656 157.058594 43.722656 156.996094 43.660156 C 156.816406 43.421875 156.332031 43.421875 156.03125 43.480469 Z M 155.425781 44.386719 L 154.882812 44.328125 C 155.003906 45.597656 156.394531 45.65625 157.300781 45.292969 C 157.722656 45.113281 158.085938 44.871094 158.449219 44.570312 C 158.449219 44.507812 158.507812 44.507812 158.449219 44.449219 L 158.265625 43.964844 C 157.359375 44.207031 156.394531 44.207031 155.425781 44.023438 C 155.425781 44.023438 155.425781 44.085938 155.425781 44.085938 L 155.425781 44.386719 C 155.425781 44.386719 155.425781 44.449219 155.425781 44.386719 Z M 155.183594 37.316406 C 155.246094 37.316406 155.304688 37.316406 155.367188 37.316406 C 156.152344 37.132812 156.996094 36.773438 157.421875 36.105469 C 157.421875 36.046875 157.359375 36.046875 157.359375 36.046875 C 157.117188 36.226562 156.875 36.347656 156.574219 36.46875 C 156.089844 36.652344 155.367188 36.589844 155.125 37.132812 C 155.0625 37.195312 155.125 37.316406 155.183594 37.316406 Z M 147.75 35.199219 C 147.449219 36.167969 147.328125 37.132812 147.328125 38.160156 C 147.328125 38.160156 147.328125 38.222656 147.328125 38.222656 L 147.871094 38.222656 C 147.929688 38.222656 147.929688 38.222656 147.929688 38.160156 C 147.871094 37.132812 147.871094 36.226562 148.234375 35.199219 C 148.234375 35.199219 148.171875 35.199219 148.171875 35.199219 L 147.808594 35.140625 C 147.808594 35.140625 147.75 35.199219 147.75 35.199219 Z M 149.925781 37.4375 C 149.925781 37.375 149.925781 37.375 149.925781 37.375 C 149.925781 37.4375 149.925781 37.4375 149.925781 37.4375 C 150.105469 37.800781 150.289062 38.28125 149.984375 38.644531 C 149.925781 38.644531 149.925781 38.644531 149.984375 38.707031 C 150.167969 38.707031 150.589844 38.828125 150.773438 38.644531 C 150.773438 38.644531 150.773438 38.585938 150.773438 38.585938 C 150.53125 38.160156 150.226562 37.800781 149.925781 37.4375 Z M 154.699219 22.566406 C 154.578125 22.628906 155.125 21.78125 155.667969 21.78125 C 155.726562 21.78125 155.367188 21.902344 155.183594 22.144531 C 155.125 22.207031 155.304688 22.207031 155.304688 22.207031 C 155.304688 22.207031 155.546875 22.207031 155.546875 22.207031 C 155.789062 22.207031 155.910156 22.265625 155.910156 22.265625 C 155.304688 22.265625 154.820312 22.628906 154.699219 22.566406 Z M 154.699219 22.566406 " fill-opacity="1" fill-rule="evenodd"/></g><path fill="#df8d00" d="M 62.945312 33.222656 L 58.625 33.222656 L 57.933594 35.269531 L 54.980469 35.269531 L 59.167969 23.691406 L 62.433594 23.691406 L 66.625 35.269531 L 63.640625 35.269531 Z M 62.222656 31.046875 L 60.785156 26.808594 L 59.367188 31.046875 Z M 62.222656 31.046875 " fill-opacity="1" fill-rule="nonzero"/><path fill="#df8d00" d="M 68.980469 23.691406 L 71.800781 23.691406 L 71.800781 35.269531 L 68.980469 35.269531 Z M 68.980469 23.691406 " fill-opacity="1" fill-rule="nonzero"/><path fill="#df8d00" d="M 80.839844 35.269531 L 78.429688 30.898438 L 77.753906 30.898438 L 77.753906 35.269531 L 74.933594 35.269531 L 74.933594 23.691406 L 79.667969 23.691406 C 80.582031 23.691406 81.359375 23.851562 82.003906 24.167969 C 82.644531 24.488281 83.125 24.925781 83.445312 25.480469 C 83.765625 26.035156 83.925781 26.652344 83.925781 27.335938 C 83.925781 28.105469 83.707031 28.792969 83.273438 29.394531 C 82.839844 30 82.199219 30.429688 81.351562 30.683594 L 84.023438 35.269531 Z M 77.753906 28.902344 L 79.503906 28.902344 C 80.019531 28.902344 80.40625 28.773438 80.667969 28.523438 C 80.925781 28.269531 81.054688 27.914062 81.054688 27.449219 C 81.054688 27.011719 80.925781 26.664062 80.667969 26.410156 C 80.40625 26.160156 80.019531 26.03125 79.503906 26.03125 L 77.753906 26.03125 Z M 77.753906 28.902344 " fill-opacity="1" fill-rule="nonzero"/><path fill="#df8d00" d="M 91.113281 23.691406 C 92.332031 23.691406 93.398438 23.933594 94.3125 24.414062 C 95.226562 24.898438 95.933594 25.578125 96.433594 26.453125 C 96.933594 27.328125 97.183594 28.335938 97.183594 29.480469 C 97.183594 30.613281 96.933594 31.617188 96.433594 32.496094 C 95.933594 33.378906 95.222656 34.058594 94.304688 34.542969 C 93.386719 35.027344 92.324219 35.269531 91.113281 35.269531 L 86.777344 35.269531 L 86.777344 23.691406 Z M 90.933594 32.828125 C 92 32.828125 92.828125 32.535156 93.421875 31.953125 C 94.015625 31.371094 94.3125 30.546875 94.3125 29.480469 C 94.3125 28.414062 94.015625 27.582031 93.421875 26.988281 C 92.828125 26.394531 92 26.097656 90.933594 26.097656 L 89.597656 26.097656 L 89.597656 32.828125 Z M 90.933594 32.828125 " fill-opacity="1" fill-rule="nonzero"/><path fill="#df8d00" d="M 105.757812 35.269531 L 103.351562 30.898438 L 102.675781 30.898438 L 102.675781 35.269531 L 99.851562 35.269531 L 99.851562 23.691406 L 104.585938 23.691406 C 105.5 23.691406 106.277344 23.851562 106.921875 24.167969 C 107.5625 24.488281 108.046875 24.925781 108.363281 25.480469 C 108.683594 26.035156 108.84375 26.652344 108.84375 27.335938 C 108.84375 28.105469 108.625 28.792969 108.191406 29.394531 C 107.757812 30 107.117188 30.429688 106.269531 30.683594 L 108.941406 35.269531 Z M 102.675781 28.902344 L 104.421875 28.902344 C 104.9375 28.902344 105.328125 28.773438 105.585938 28.523438 C 105.84375 28.269531 105.972656 27.914062 105.972656 27.449219 C 105.972656 27.011719 105.84375 26.664062 105.585938 26.410156 C 105.328125 26.160156 104.9375 26.03125 104.421875 26.03125 L 102.675781 26.03125 Z M 102.675781 28.902344 " fill-opacity="1" fill-rule="nonzero"/><path fill="#df8d00" d="M 117.171875 35.382812 C 116.082031 35.382812 115.082031 35.132812 114.175781 34.625 C 113.269531 34.121094 112.550781 33.414062 112.015625 32.507812 C 111.484375 31.597656 111.214844 30.578125 111.214844 29.445312 C 111.214844 28.3125 111.484375 27.296875 112.015625 26.394531 C 112.550781 25.492188 113.269531 24.789062 114.175781 24.285156 C 115.082031 23.777344 116.082031 23.523438 117.171875 23.523438 C 118.257812 23.523438 119.257812 23.777344 120.164062 24.285156 C 121.070312 24.789062 121.785156 25.492188 122.308594 26.394531 C 122.828125 27.296875 123.089844 28.3125 123.089844 29.445312 C 123.089844 30.578125 122.828125 31.597656 122.300781 32.507812 C 121.769531 33.414062 121.058594 34.121094 120.15625 34.625 C 119.253906 35.132812 118.257812 35.382812 117.171875 35.382812 Z M 117.171875 32.8125 C 118.09375 32.8125 118.832031 32.503906 119.386719 31.886719 C 119.945312 31.273438 120.222656 30.457031 120.222656 29.445312 C 120.222656 28.421875 119.945312 27.609375 119.386719 26.996094 C 118.832031 26.386719 118.09375 26.082031 117.171875 26.082031 C 116.234375 26.082031 115.492188 26.382812 114.933594 26.988281 C 114.378906 27.59375 114.101562 28.414062 114.101562 29.445312 C 114.101562 30.46875 114.378906 31.285156 114.933594 31.894531 C 115.492188 32.507812 116.234375 32.8125 117.171875 32.8125 Z M 117.171875 32.8125 " fill-opacity="1" fill-rule="nonzero"/><path fill="#df8d00" d="M 134.570312 27.417969 C 134.570312 28.089844 134.414062 28.703125 134.105469 29.257812 C 133.800781 29.8125 133.328125 30.261719 132.6875 30.601562 C 132.050781 30.941406 131.257812 31.113281 130.3125 31.113281 L 128.566406 31.113281 L 128.566406 35.269531 L 125.746094 35.269531 L 125.746094 23.691406 L 130.3125 23.691406 C 131.238281 23.691406 132.019531 23.851562 132.65625 24.167969 C 133.292969 24.488281 133.773438 24.925781 134.089844 25.488281 C 134.410156 26.046875 134.570312 26.691406 134.570312 27.417969 Z M 130.097656 28.867188 C 130.636719 28.867188 131.039062 28.742188 131.304688 28.488281 C 131.566406 28.238281 131.699219 27.878906 131.699219 27.417969 C 131.699219 26.957031 131.566406 26.597656 131.304688 26.34375 C 131.039062 26.09375 130.636719 25.964844 130.097656 25.964844 L 128.566406 25.964844 L 128.566406 28.867188 Z M 130.097656 28.867188 " fill-opacity="1" fill-rule="nonzero"/><path fill="#df8d00" d="M 60.230469 53.445312 C 59.359375 53.445312 58.582031 53.289062 57.898438 52.980469 C 57.210938 52.671875 56.671875 52.246094 56.28125 51.695312 C 55.890625 51.148438 55.691406 50.515625 55.679688 49.800781 L 57.511719 49.800781 C 57.574219 50.414062 57.828125 50.9375 58.273438 51.359375 C 58.722656 51.777344 59.375 51.988281 60.230469 51.988281 C 61.046875 51.988281 61.691406 51.785156 62.164062 51.375 C 62.636719 50.96875 62.875 50.441406 62.875 49.800781 C 62.875 49.296875 62.734375 48.886719 62.457031 48.570312 C 62.179688 48.257812 61.835938 48.015625 61.417969 47.855469 C 61.003906 47.691406 60.445312 47.515625 59.738281 47.324219 C 58.871094 47.097656 58.175781 46.871094 57.652344 46.644531 C 57.128906 46.417969 56.683594 46.0625 56.3125 45.578125 C 55.941406 45.09375 55.753906 44.441406 55.753906 43.625 C 55.753906 42.90625 55.9375 42.269531 56.300781 41.714844 C 56.667969 41.164062 57.179688 40.734375 57.839844 40.433594 C 58.5 40.128906 59.261719 39.980469 60.117188 39.980469 C 61.351562 39.980469 62.359375 40.289062 63.148438 40.902344 C 63.933594 41.519531 64.378906 42.339844 64.480469 43.359375 L 62.589844 43.359375 C 62.527344 42.855469 62.261719 42.410156 61.796875 42.027344 C 61.332031 41.644531 60.714844 41.453125 59.945312 41.453125 C 59.230469 41.453125 58.644531 41.636719 58.191406 42.007812 C 57.738281 42.378906 57.511719 42.898438 57.511719 43.566406 C 57.511719 44.046875 57.644531 44.4375 57.917969 44.738281 C 58.1875 45.039062 58.519531 45.269531 58.917969 45.425781 C 59.3125 45.585938 59.871094 45.765625 60.589844 45.964844 C 61.457031 46.203125 62.15625 46.441406 62.683594 46.671875 C 63.214844 46.90625 63.667969 47.265625 64.042969 47.75 C 64.421875 48.234375 64.609375 48.894531 64.609375 49.722656 C 64.609375 50.367188 64.441406 50.96875 64.101562 51.535156 C 63.761719 52.101562 63.257812 52.5625 62.589844 52.914062 C 61.921875 53.269531 61.136719 53.445312 60.230469 53.445312 Z M 60.230469 53.445312 " fill-opacity="1" fill-rule="nonzero"/><path fill="#df8d00" d="M 70.066406 40.148438 L 70.066406 48.476562 C 70.066406 49.648438 70.355469 50.515625 70.925781 51.082031 C 71.5 51.648438 72.296875 51.933594 73.316406 51.933594 C 74.324219 51.933594 75.113281 51.648438 75.6875 51.082031 C 76.257812 50.515625 76.546875 49.648438 76.546875 48.476562 L 76.546875 40.148438 L 78.265625 40.148438 L 78.265625 48.457031 C 78.265625 49.554688 78.042969 50.476562 77.601562 51.222656 C 77.160156 51.972656 76.566406 52.53125 75.816406 52.894531 C 75.070312 53.261719 74.230469 53.445312 73.296875 53.445312 C 72.367188 53.445312 71.523438 53.261719 70.777344 52.894531 C 70.027344 52.53125 69.433594 51.972656 69 51.222656 C 68.566406 50.476562 68.347656 49.554688 68.347656 48.457031 L 68.347656 40.148438 Z M 70.066406 40.148438 " fill-opacity="1" fill-rule="nonzero"/><path fill="#df8d00" d="M 84.097656 51.914062 L 88.707031 51.914062 L 88.707031 53.3125 L 82.378906 53.3125 L 82.378906 40.148438 L 84.097656 40.148438 Z M 84.097656 51.914062 " fill-opacity="1" fill-rule="nonzero"/><path fill="#df8d00" d="M 99.886719 40.148438 L 99.886719 41.546875 L 96.296875 41.546875 L 96.296875 53.3125 L 94.578125 53.3125 L 94.578125 41.546875 L 90.972656 41.546875 L 90.972656 40.148438 Z M 99.886719 40.148438 " fill-opacity="1" fill-rule="nonzero"/><path fill="#df8d00" d="M 111.027344 50.382812 L 105.285156 50.382812 L 104.226562 53.3125 L 102.414062 53.3125 L 107.171875 40.222656 L 109.15625 40.222656 L 113.898438 53.3125 L 112.082031 53.3125 Z M 110.535156 48.988281 L 108.15625 42.339844 L 105.777344 48.988281 Z M 110.535156 48.988281 " fill-opacity="1" fill-rule="nonzero"/><path fill="#df8d00" d="M 127.570312 53.3125 L 125.847656 53.3125 L 118.9375 42.832031 L 118.9375 53.3125 L 117.21875 53.3125 L 117.21875 40.128906 L 118.9375 40.128906 L 125.847656 50.59375 L 125.847656 40.128906 L 127.570312 40.128906 Z M 127.570312 53.3125 " fill-opacity="1" fill-rule="nonzero"/></svg>